<mxfile host="app.diagrams.net" modified="2023-11-15T20:41:33.807Z" agent="Mozilla/5.0 (Windows NT 10.0; Win64; x64) AppleWebKit/537.36 (KHTML, like Gecko) Chrome/119.0.0.0 Safari/537.36" etag="cMjGV6D22OQ6pBnyZJpc" version="22.1.2" type="device">
  <diagram name="Страница — 1" id="JRdL7RUdXmJtGYQSHJFw">
    <mxGraphModel dx="1125" dy="658" grid="1" gridSize="10" guides="1" tooltips="1" connect="1" arrows="1" fold="1" page="1" pageScale="1" pageWidth="1654" pageHeight="2336" math="0" shadow="0">
      <root>
        <mxCell id="0" />
        <mxCell id="1" parent="0" />
        <mxCell id="7RiF_T1EKZPN1kEEkdLZ-1" value="&lt;h2&gt;&lt;font face=&quot;Times New Roman&quot;&gt;Location&lt;/font&gt;&lt;/h2&gt;" style="rounded=0;whiteSpace=wrap;html=1;align=center;" vertex="1" parent="1">
          <mxGeometry x="990" y="440" width="120" height="50" as="geometry" />
        </mxCell>
        <mxCell id="7RiF_T1EKZPN1kEEkdLZ-2" value="&lt;h2&gt;&lt;font face=&quot;Times New Roman&quot;&gt;ID&lt;/font&gt;&lt;/h2&gt;" style="ellipse;whiteSpace=wrap;html=1;fontStyle=4" vertex="1" parent="1">
          <mxGeometry x="890" y="380" width="70" height="40" as="geometry" />
        </mxCell>
        <mxCell id="7RiF_T1EKZPN1kEEkdLZ-3" value="&lt;h2&gt;&lt;font face=&quot;Times New Roman&quot;&gt;Name&lt;/font&gt;&lt;/h2&gt;" style="ellipse;whiteSpace=wrap;html=1;" vertex="1" parent="1">
          <mxGeometry x="960" y="340" width="70" height="40" as="geometry" />
        </mxCell>
        <mxCell id="7RiF_T1EKZPN1kEEkdLZ-5" value="&lt;h2&gt;&lt;font face=&quot;Times New Roman&quot;&gt;Address&lt;/font&gt;&lt;/h2&gt;" style="ellipse;whiteSpace=wrap;html=1;" vertex="1" parent="1">
          <mxGeometry x="1050" y="330" width="80" height="40" as="geometry" />
        </mxCell>
        <mxCell id="7RiF_T1EKZPN1kEEkdLZ-6" value="&lt;h2&gt;&lt;font face=&quot;Times New Roman&quot;&gt;Number of seats&lt;/font&gt;&lt;/h2&gt;" style="ellipse;whiteSpace=wrap;html=1;" vertex="1" parent="1">
          <mxGeometry x="1120" y="370" width="120" height="60" as="geometry" />
        </mxCell>
        <mxCell id="7RiF_T1EKZPN1kEEkdLZ-7" value="" style="endArrow=none;html=1;rounded=0;exitX=0.5;exitY=0;exitDx=0;exitDy=0;entryX=0.5;entryY=1;entryDx=0;entryDy=0;" edge="1" parent="1" source="7RiF_T1EKZPN1kEEkdLZ-1" target="7RiF_T1EKZPN1kEEkdLZ-2">
          <mxGeometry width="50" height="50" relative="1" as="geometry">
            <mxPoint x="1080" y="400" as="sourcePoint" />
            <mxPoint x="940" y="400" as="targetPoint" />
          </mxGeometry>
        </mxCell>
        <mxCell id="7RiF_T1EKZPN1kEEkdLZ-9" value="" style="endArrow=none;html=1;rounded=0;entryX=0.5;entryY=0;entryDx=0;entryDy=0;exitX=0.5;exitY=1;exitDx=0;exitDy=0;" edge="1" parent="1" source="7RiF_T1EKZPN1kEEkdLZ-3" target="7RiF_T1EKZPN1kEEkdLZ-1">
          <mxGeometry width="50" height="50" relative="1" as="geometry">
            <mxPoint x="1000" y="400" as="sourcePoint" />
            <mxPoint x="1050" y="350" as="targetPoint" />
          </mxGeometry>
        </mxCell>
        <mxCell id="7RiF_T1EKZPN1kEEkdLZ-10" value="" style="endArrow=none;html=1;rounded=0;entryX=0.5;entryY=0;entryDx=0;entryDy=0;exitX=0.5;exitY=1;exitDx=0;exitDy=0;" edge="1" parent="1" source="7RiF_T1EKZPN1kEEkdLZ-5" target="7RiF_T1EKZPN1kEEkdLZ-1">
          <mxGeometry width="50" height="50" relative="1" as="geometry">
            <mxPoint x="1049" y="390" as="sourcePoint" />
            <mxPoint x="1060" y="440" as="targetPoint" />
          </mxGeometry>
        </mxCell>
        <mxCell id="7RiF_T1EKZPN1kEEkdLZ-11" value="" style="endArrow=none;html=1;rounded=0;entryX=0.5;entryY=0;entryDx=0;entryDy=0;exitX=0.078;exitY=0.774;exitDx=0;exitDy=0;exitPerimeter=0;" edge="1" parent="1" source="7RiF_T1EKZPN1kEEkdLZ-6" target="7RiF_T1EKZPN1kEEkdLZ-1">
          <mxGeometry width="50" height="50" relative="1" as="geometry">
            <mxPoint x="1140" y="400" as="sourcePoint" />
            <mxPoint x="1060" y="440" as="targetPoint" />
          </mxGeometry>
        </mxCell>
        <mxCell id="7RiF_T1EKZPN1kEEkdLZ-12" value="&lt;h2&gt;&lt;font face=&quot;Times New Roman&quot;&gt;Event&lt;/font&gt;&lt;/h2&gt;" style="rounded=0;whiteSpace=wrap;html=1;align=center;" vertex="1" parent="1">
          <mxGeometry x="555" y="660" width="120" height="50" as="geometry" />
        </mxCell>
        <mxCell id="7RiF_T1EKZPN1kEEkdLZ-13" value="&lt;h2&gt;&lt;font face=&quot;Times New Roman&quot;&gt;ID&lt;/font&gt;&lt;/h2&gt;" style="ellipse;whiteSpace=wrap;html=1;fontStyle=4" vertex="1" parent="1">
          <mxGeometry x="460" y="590" width="70" height="40" as="geometry" />
        </mxCell>
        <mxCell id="7RiF_T1EKZPN1kEEkdLZ-14" value="" style="endArrow=none;html=1;rounded=0;exitX=0.5;exitY=0;exitDx=0;exitDy=0;entryX=0.5;entryY=1;entryDx=0;entryDy=0;" edge="1" parent="1" source="7RiF_T1EKZPN1kEEkdLZ-12" target="7RiF_T1EKZPN1kEEkdLZ-13">
          <mxGeometry width="50" height="50" relative="1" as="geometry">
            <mxPoint x="1060" y="440" as="sourcePoint" />
            <mxPoint x="915" y="370" as="targetPoint" />
            <Array as="points" />
          </mxGeometry>
        </mxCell>
        <mxCell id="7RiF_T1EKZPN1kEEkdLZ-15" value="&lt;h2&gt;&lt;font face=&quot;Times New Roman&quot;&gt;Name&lt;/font&gt;&lt;/h2&gt;" style="ellipse;whiteSpace=wrap;html=1;" vertex="1" parent="1">
          <mxGeometry x="530" y="550" width="70" height="40" as="geometry" />
        </mxCell>
        <mxCell id="7RiF_T1EKZPN1kEEkdLZ-16" value="" style="endArrow=none;html=1;rounded=0;entryX=0.5;entryY=1;entryDx=0;entryDy=0;exitX=0.5;exitY=0;exitDx=0;exitDy=0;" edge="1" parent="1" source="7RiF_T1EKZPN1kEEkdLZ-12" target="7RiF_T1EKZPN1kEEkdLZ-15">
          <mxGeometry width="50" height="50" relative="1" as="geometry">
            <mxPoint x="470" y="440" as="sourcePoint" />
            <mxPoint x="750" y="410" as="targetPoint" />
          </mxGeometry>
        </mxCell>
        <mxCell id="7RiF_T1EKZPN1kEEkdLZ-17" value="&lt;h2&gt;&lt;font face=&quot;Times New Roman&quot;&gt;Theme&lt;/font&gt;&lt;/h2&gt;" style="ellipse;whiteSpace=wrap;html=1;" vertex="1" parent="1">
          <mxGeometry x="620" y="570" width="70" height="40" as="geometry" />
        </mxCell>
        <mxCell id="7RiF_T1EKZPN1kEEkdLZ-18" value="" style="endArrow=none;html=1;rounded=0;entryX=0.5;entryY=1;entryDx=0;entryDy=0;exitX=0.5;exitY=0;exitDx=0;exitDy=0;" edge="1" parent="1" source="7RiF_T1EKZPN1kEEkdLZ-12" target="7RiF_T1EKZPN1kEEkdLZ-17">
          <mxGeometry width="50" height="50" relative="1" as="geometry">
            <mxPoint x="470" y="440" as="sourcePoint" />
            <mxPoint x="445" y="340" as="targetPoint" />
          </mxGeometry>
        </mxCell>
        <mxCell id="7RiF_T1EKZPN1kEEkdLZ-19" value="&lt;h2&gt;&lt;font face=&quot;Times New Roman&quot;&gt;Take&lt;/font&gt;&lt;/h2&gt;" style="rhombus;whiteSpace=wrap;html=1;" vertex="1" parent="1">
          <mxGeometry x="750" y="470" width="130" height="50" as="geometry" />
        </mxCell>
        <mxCell id="7RiF_T1EKZPN1kEEkdLZ-20" value="" style="endArrow=none;html=1;rounded=0;exitX=0.5;exitY=0;exitDx=0;exitDy=0;entryX=0.5;entryY=1;entryDx=0;entryDy=0;" edge="1" parent="1" source="7RiF_T1EKZPN1kEEkdLZ-19" target="7RiF_T1EKZPN1kEEkdLZ-22">
          <mxGeometry width="50" height="50" relative="1" as="geometry">
            <mxPoint x="750" y="370" as="sourcePoint" />
            <mxPoint x="755" y="340" as="targetPoint" />
          </mxGeometry>
        </mxCell>
        <mxCell id="7RiF_T1EKZPN1kEEkdLZ-22" value="&lt;h2&gt;&lt;font face=&quot;Times New Roman&quot;&gt;When&lt;/font&gt;&lt;/h2&gt;" style="ellipse;whiteSpace=wrap;html=1;" vertex="1" parent="1">
          <mxGeometry x="720" y="390" width="70" height="40" as="geometry" />
        </mxCell>
        <mxCell id="7RiF_T1EKZPN1kEEkdLZ-26" value="" style="edgeStyle=entityRelationEdgeStyle;fontSize=12;html=1;endArrow=ERoneToMany;rounded=0;exitX=0;exitY=0.5;exitDx=0;exitDy=0;entryX=1.012;entryY=0.597;entryDx=0;entryDy=0;entryPerimeter=0;" edge="1" parent="1" source="7RiF_T1EKZPN1kEEkdLZ-19" target="7RiF_T1EKZPN1kEEkdLZ-12">
          <mxGeometry width="100" height="100" relative="1" as="geometry">
            <mxPoint x="590" y="550" as="sourcePoint" />
            <mxPoint x="600" y="440" as="targetPoint" />
            <Array as="points">
              <mxPoint x="730" y="335" />
              <mxPoint x="740" y="355" />
              <mxPoint x="650" y="555" />
              <mxPoint x="710" y="325" />
              <mxPoint x="720" y="285" />
            </Array>
          </mxGeometry>
        </mxCell>
        <mxCell id="7RiF_T1EKZPN1kEEkdLZ-46" value="" style="edgeStyle=entityRelationEdgeStyle;fontSize=12;html=1;endArrow=ERone;endFill=1;rounded=0;entryX=0;entryY=0.5;entryDx=0;entryDy=0;exitX=1;exitY=0.5;exitDx=0;exitDy=0;" edge="1" parent="1" source="7RiF_T1EKZPN1kEEkdLZ-19" target="7RiF_T1EKZPN1kEEkdLZ-1">
          <mxGeometry width="100" height="100" relative="1" as="geometry">
            <mxPoint x="730" y="680" as="sourcePoint" />
            <mxPoint x="830" y="580" as="targetPoint" />
          </mxGeometry>
        </mxCell>
        <mxCell id="7RiF_T1EKZPN1kEEkdLZ-50" value="&lt;h2&gt;&lt;font face=&quot;Times New Roman&quot;&gt;Own&lt;/font&gt;&lt;/h2&gt;" style="rhombus;whiteSpace=wrap;html=1;" vertex="1" parent="1">
          <mxGeometry x="1120" y="630" width="140" height="50" as="geometry" />
        </mxCell>
        <mxCell id="7RiF_T1EKZPN1kEEkdLZ-51" value="" style="edgeStyle=entityRelationEdgeStyle;fontSize=12;html=1;endArrow=ERoneToMany;rounded=0;entryX=1;entryY=0.5;entryDx=0;entryDy=0;exitX=0.5;exitY=0;exitDx=0;exitDy=0;" edge="1" parent="1" source="7RiF_T1EKZPN1kEEkdLZ-50" target="7RiF_T1EKZPN1kEEkdLZ-1">
          <mxGeometry width="100" height="100" relative="1" as="geometry">
            <mxPoint x="1120" y="575" as="sourcePoint" />
            <mxPoint x="1130" y="510" as="targetPoint" />
          </mxGeometry>
        </mxCell>
        <mxCell id="7RiF_T1EKZPN1kEEkdLZ-52" value="&lt;h2&gt;&lt;font face=&quot;Times New Roman&quot;&gt;Owner&lt;/font&gt;&lt;/h2&gt;" style="rounded=0;whiteSpace=wrap;html=1;align=center;" vertex="1" parent="1">
          <mxGeometry x="870" y="680" width="120" height="50" as="geometry" />
        </mxCell>
        <mxCell id="7RiF_T1EKZPN1kEEkdLZ-53" value="" style="edgeStyle=entityRelationEdgeStyle;fontSize=12;html=1;endArrow=ERone;endFill=1;rounded=0;exitX=0;exitY=0.5;exitDx=0;exitDy=0;entryX=1;entryY=0.5;entryDx=0;entryDy=0;" edge="1" parent="1" source="7RiF_T1EKZPN1kEEkdLZ-50" target="7RiF_T1EKZPN1kEEkdLZ-52">
          <mxGeometry width="100" height="100" relative="1" as="geometry">
            <mxPoint x="940" y="570" as="sourcePoint" />
            <mxPoint x="1240" y="720" as="targetPoint" />
          </mxGeometry>
        </mxCell>
        <mxCell id="7RiF_T1EKZPN1kEEkdLZ-54" value="&lt;h2&gt;&lt;font face=&quot;Times New Roman&quot;&gt;ID&lt;/font&gt;&lt;/h2&gt;" style="ellipse;whiteSpace=wrap;html=1;fontStyle=4" vertex="1" parent="1">
          <mxGeometry x="800" y="600" width="70" height="40" as="geometry" />
        </mxCell>
        <mxCell id="7RiF_T1EKZPN1kEEkdLZ-55" value="&lt;h2&gt;&lt;font face=&quot;Times New Roman&quot;&gt;Name&lt;/font&gt;&lt;/h2&gt;" style="ellipse;whiteSpace=wrap;html=1;" vertex="1" parent="1">
          <mxGeometry x="880" y="580" width="70" height="40" as="geometry" />
        </mxCell>
        <mxCell id="7RiF_T1EKZPN1kEEkdLZ-56" value="&lt;h2&gt;&lt;font face=&quot;Times New Roman&quot;&gt;PhoneNumber&lt;/font&gt;&lt;/h2&gt;" style="ellipse;whiteSpace=wrap;html=1;" vertex="1" parent="1">
          <mxGeometry x="970" y="590" width="130" height="50" as="geometry" />
        </mxCell>
        <mxCell id="7RiF_T1EKZPN1kEEkdLZ-57" value="" style="endArrow=none;html=1;rounded=0;entryX=0.5;entryY=1;entryDx=0;entryDy=0;exitX=0.5;exitY=0;exitDx=0;exitDy=0;" edge="1" parent="1" source="7RiF_T1EKZPN1kEEkdLZ-52" target="7RiF_T1EKZPN1kEEkdLZ-54">
          <mxGeometry width="50" height="50" relative="1" as="geometry">
            <mxPoint x="850" y="540" as="sourcePoint" />
            <mxPoint x="900" y="490" as="targetPoint" />
          </mxGeometry>
        </mxCell>
        <mxCell id="7RiF_T1EKZPN1kEEkdLZ-58" value="" style="endArrow=none;html=1;rounded=0;entryX=0.5;entryY=1;entryDx=0;entryDy=0;exitX=0.5;exitY=0;exitDx=0;exitDy=0;" edge="1" parent="1" source="7RiF_T1EKZPN1kEEkdLZ-52" target="7RiF_T1EKZPN1kEEkdLZ-55">
          <mxGeometry width="50" height="50" relative="1" as="geometry">
            <mxPoint x="1000" y="660" as="sourcePoint" />
            <mxPoint x="895" y="640" as="targetPoint" />
          </mxGeometry>
        </mxCell>
        <mxCell id="7RiF_T1EKZPN1kEEkdLZ-59" value="" style="endArrow=none;html=1;rounded=0;entryX=0.075;entryY=0.76;entryDx=0;entryDy=0;exitX=0.5;exitY=0;exitDx=0;exitDy=0;entryPerimeter=0;" edge="1" parent="1" source="7RiF_T1EKZPN1kEEkdLZ-52" target="7RiF_T1EKZPN1kEEkdLZ-56">
          <mxGeometry width="50" height="50" relative="1" as="geometry">
            <mxPoint x="1014" y="676" as="sourcePoint" />
            <mxPoint x="905" y="650" as="targetPoint" />
          </mxGeometry>
        </mxCell>
      </root>
    </mxGraphModel>
  </diagram>
</mxfile>
